# File created by Blade
# Date/Time:  Wed Jan 21 15:15:22 2015
# Frame Rate: 120.000 fps
#------------------------------------------------------
:FULLY-SPECIFIED
:DEGREES
981
root 21.350864 37.671241 -17.429894 166.438138 -48.763046 -129.507979
Spine -18.036863 -4.499895 -6.796279
Head -1.471553 32.087151 35.685770
LeftShoulder -9.223322 -26.059736 12.338912
LeftArm -19.945338 6.762474 -61.233280
LeftForeArm -1.675643 -0.000000 2.387600
LeftHand -1.695532 0.000000 -0.052040
LeftHandThumb1 -26.253704 0.000000 33.147579
RightShoulder -18.375438 -11.748985 16.591489
RightArm -6.942123 21.739856 60.503927
RightForeArm -39.303638 -0.000000 7.212879
RightHand -4.534256 -0.000000 12.010638
RightHandThumb1 -24.326973 -0.000000 -32.862282
LeftUpLeg -40.124739 41.148681 -5.195051
LeftLeg -5.911216 -0.000000 0.000000
LeftFoot -18.778394 17.475221 -15.405134
LeftToeBase 41.514172 -0.000000 -0.000000
RightUpLeg -14.479538 -20.858599 0.955430
RightLeg 118.274917 -0.000000 -0.000000
RightFoot 17.064652 -32.517154 -5.726906
RightToeBase 24.169232 -0.000000 -0.000000
982
root 21.365728 37.610952 -17.376304 166.282883 -49.263793 -130.181900
Spine -17.635349 -4.797546 -6.888598
Head -1.216306 32.043306 35.289225
LeftShoulder -9.177960 -26.211212 12.346914
LeftArm -19.722158 6.613002 -60.834636
LeftForeArm -1.562737 -0.000000 2.561162
LeftHand -1.513946 -0.000000 0.036329
LeftHandThumb1 -26.253704 0.000000 33.147579
RightShoulder -18.041862 -11.214990 16.337045
RightArm -6.552417 21.427244 60.231702
RightForeArm -39.205828 -0.000000 7.364043
RightHand -4.588423 0.000000 11.266459
RightHandThumb1 -24.326973 -0.000000 -32.862282
LeftUpLeg -39.291860 40.683796 -5.250710
LeftLeg -5.895183 -0.000000 0.000000
LeftFoot -18.986781 17.616980 -15.569247
LeftToeBase 41.507235 -0.000000 -0.000000
RightUpLeg -14.963552 -21.492214 1.958094
RightLeg 116.270593 -0.000000 -0.000000
RightFoot 15.326303 -33.264218 -5.108759
RightToeBase 24.074187 -0.000000 -0.000000
983
root 21.386112 37.550472 -17.318309 166.260220 -49.728577 -130.950374
Spine -17.299387 -5.085177 -7.052800
Head -0.953974 32.034481 34.941256
LeftShoulder -9.161731 -26.443858 12.423698
LeftArm -19.634138 6.508700 -60.430361
LeftForeArm -1.276665 -0.000000 2.854161
LeftHand -1.482051 0.000000 0.247951
LeftHandThumb1 -26.253704 0.000000 33.147579
RightShoulder -17.738376 -10.836659 16.100813
RightArm -5.972833 21.396274 60.048856
RightForeArm -39.207345 -0.000000 7.510280
RightHand -4.625876 0.000000 10.614293
RightHandThumb1 -24.326973 -0.000000 -32.862282
LeftUpLeg -38.572796 40.264888 -5.444359
LeftLeg -5.865668 -0.000000 0.000000
LeftFoot -19.012465 17.896652 -15.355364
LeftToeBase 41.116056 -0.000000 -0.000000
RightUpLeg -15.543339 -22.015122 2.932298
RightLeg 114.234931 -0.000000 -0.000000
RightFoot 13.487873 -34.001576 -4.128769
RightToeBase 23.636014 -0.000000 -0.000000
984
root 21.411300 37.492564 -17.256791 166.231516 -50.134546 -131.692394
Spine -16.951528 -5.257743 -7.199814
Head -0.802779 32.022906 34.536552
LeftShoulder -9.074140 -26.694753 12.434854
LeftArm -19.565382 6.463368 -60.012062
LeftForeArm -1.244562 -0.000000 3.194602
LeftHand -1.534424 -0.000000 0.565192
LeftHandThumb1 -26.253704 0.000000 33.147579
RightShoulder -17.475232 -10.325102 15.855428
RightArm -5.456327 21.371107 59.782244
RightForeArm -38.868906 -0.000000 7.700396
RightHand -4.587704 0.000000 10.403606
RightHandThumb1 -24.326973 -0.000000 -32.862282
LeftUpLeg -37.907769 39.891755 -5.630797
LeftLeg -5.813986 -0.000000 0.000000
LeftFoot -19.099245 18.212518 -15.154420
LeftToeBase 40.987868 -0.000000 -0.000000
RightUpLeg -16.124007 -22.386487 3.956325
RightLeg 112.151380 -0.000000 -0.000000
RightFoot 11.783005 -34.352587 -3.572517
RightToeBase 23.735604 -0.000000 -0.000000
985
root 21.446911 37.438121 -17.191879 166.314701 -50.521153 -132.434132
Spine -16.727178 -5.430356 -7.358134
Head -0.622480 31.981521 34.193460
LeftShoulder -9.052360 -26.847887 12.506800
LeftArm -19.335459 6.220438 -59.534870
LeftForeArm -0.973944 -0.000000 3.386715
LeftHand -1.538056 -0.000000 0.694556
LeftHandThumb1 -26.253704 0.000000 33.147579
RightShoulder -17.159806 -9.837422 15.593937
RightArm -5.002387 21.553259 59.517069
RightForeArm -38.818307 -0.000000 7.983190
RightHand -4.588560 0.000000 10.053555
RightHandThumb1 -24.326973 -0.000000 -32.862282
LeftUpLeg -37.441923 39.536097 -5.926508
LeftLeg -5.709774 -0.000000 0.000000
LeftFoot -19.129612 18.476537 -14.950923
LeftToeBase 40.676096 -0.000000 -0.000000
RightUpLeg -16.840699 -22.588841 5.090596
RightLeg 110.035706 -0.000000 -0.000000
RightFoot 10.096975 -34.728263 -2.749942
RightToeBase 23.164875 -0.000000 -0.000000
